{
	"asset":{
		"generator":"Khronos glTF Blender I/O v5.1.19",
		"version":"2.0"
	},
	"extensionsUsed":[
		"KHR_materials_transmission",
		"KHR_materials_specular",
		"KHR_materials_ior",
		"KHR_texture_transform"
	],
	"extensionsRequired":[
		"KHR_texture_transform"
	],
	"scene":0,
	"scenes":[
		{
			"name":"upload",
			"nodes":[
				1
			]
		}
	],
	"nodes":[
		{
			"mesh":0,
			"name":"MAPLE TREE VARIATION ",
			"translation":[
				0.0290572140365839,
				-0.002364346757531166,
				0
			]
		},
		{
			"children":[
				0
			],
			"name":"Maple Tree Variation"
		}
	],
	"materials":[
		{
			"doubleSided":true,
			"name":"EPS_BARK_04",
			"normalTexture":{
				"extensions":{
					"KHR_texture_transform":{
						"offset":[
							0,
							-1.3299999237060547
						],
						"scale":[
							2.3299999237060547,
							2.3299999237060547
						]
					}
				},
				"index":0
			},
			"pbrMetallicRoughness":{
				"baseColorFactor":[
					0.800000011920929,
					0.800000011920929,
					0.800000011920929,
					1
				],
				"metallicFactor":0,
				"roughnessFactor":0.5
			}
		},
		{
			"doubleSided":true,
			"extensions":{
				"KHR_materials_transmission":{
					"transmissionFactor":0.19545455276966095
				},
				"KHR_materials_specular":{
					"specularTexture":{
						"index":1
					},
					"specularColorFactor":[
						20.0,
						20.0,
						20.0
					]
				},
				"KHR_materials_ior":{
					"ior":1.4500000476837158
				}
			},
			"name":"ETG_LEAF_04",
			"normalTexture":{
				"index":2
			},
			"pbrMetallicRoughness":{
				"baseColorTexture":{
					"index":3
				},
				"metallicFactor":0,
				"metallicRoughnessTexture":{
					"index":4
				},
				"roughnessFactor":0.4800001382827759
			}
		}
	],
	"meshes":[
		{
			"name":"B\u00e9zierCurve.011",
			"primitives":[
				{
					"attributes":{
						"POSITION":0,
						"NORMAL":1,
						"TEXCOORD_0":2,
						"COLOR_0":3,
						"COLOR_1":4
					},
					"indices":5,
					"material":0
				},
				{
					"attributes":{
						"POSITION":6,
						"NORMAL":7,
						"TEXCOORD_0":8,
						"COLOR_0":9,
						"COLOR_1":10
					},
					"indices":11,
					"material":1
				}
			]
		}
	],
	"textures":[
		{
			"sampler":0,
			"source":0
		},
		{
			"sampler":0,
			"source":1
		},
		{
			"sampler":0,
			"source":2
		},
		{
			"sampler":0,
			"source":1
		},
		{
			"sampler":0,
			"source":3
		}
	],
	"images":[
		{
			"mimeType":"image/jpeg",
			"name":"Bark_016_D",
			"uri":"Bark_016_D.jpg"
		},
		{
			"mimeType":"image/jpeg",
			"name":"Sycamore_Leaf_0004_diffuse",
			"uri":"Sycamore_Leaf_0004_diffuse.jpg"
		},
		{
			"mimeType":"image/jpeg",
			"name":"Sycamore_Leaf_0004_bump",
			"uri":"Sycamore_Leaf_0004_bump.jpg"
		},
		{
			"mimeType":"image/png",
			"name":"Sycamore_Leaf_0004_bump",
			"uri":"Sycamore_Leaf_0004_bump.png"
		}
	],
	"accessors":[
		{
			"bufferView":0,
			"componentType":5126,
			"count":701261,
			"max":[
				2.1662583351135254,
				6.786862850189209,
				1.7701611518859863
			],
			"min":[
				-2.0530405044555664,
				-0.2235804945230484,
				-2.158731460571289
			],
			"type":"VEC3"
		},
		{
			"bufferView":1,
			"componentType":5126,
			"count":701261,
			"type":"VEC3"
		},
		{
			"bufferView":2,
			"componentType":5126,
			"count":701261,
			"type":"VEC2"
		},
		{
			"bufferView":3,
			"componentType":5121,
			"count":701261,
			"normalized":true,
			"type":"VEC4"
		},
		{
			"bufferView":4,
			"componentType":5123,
			"count":701261,
			"normalized":true,
			"type":"VEC4"
		},
		{
			"bufferView":5,
			"componentType":5125,
			"count":3012318,
			"type":"SCALAR"
		},
		{
			"bufferView":6,
			"componentType":5126,
			"count":342000,
			"max":[
				2.1017098426818848,
				6.765219211578369,
				1.7701897621154785
			],
			"min":[
				-2.022033452987671,
				2.014509916305542,
				-2.124988317489624
			],
			"type":"VEC3"
		},
		{
			"bufferView":7,
			"componentType":5126,
			"count":342000,
			"type":"VEC3"
		},
		{
			"bufferView":8,
			"componentType":5126,
			"count":342000,
			"type":"VEC2"
		},
		{
			"bufferView":9,
			"componentType":5121,
			"count":342000,
			"normalized":true,
			"type":"VEC4"
		},
		{
			"bufferView":10,
			"componentType":5123,
			"count":342000,
			"normalized":true,
			"type":"VEC4"
		},
		{
			"bufferView":11,
			"componentType":5125,
			"count":1188000,
			"type":"SCALAR"
		}
	],
	"bufferViews":[
		{
			"buffer":0,
			"byteLength":8415132,
			"byteOffset":0,
			"target":34962
		},
		{
			"buffer":0,
			"byteLength":8415132,
			"byteOffset":8415132,
			"target":34962
		},
		{
			"buffer":0,
			"byteLength":5610088,
			"byteOffset":16830264,
			"target":34962
		},
		{
			"buffer":0,
			"byteLength":2805044,
			"byteOffset":22440352,
			"target":34962
		},
		{
			"buffer":0,
			"byteLength":5610088,
			"byteOffset":25245396,
			"target":34962
		},
		{
			"buffer":0,
			"byteLength":12049272,
			"byteOffset":30855484,
			"target":34963
		},
		{
			"buffer":0,
			"byteLength":4104000,
			"byteOffset":42904756,
			"target":34962
		},
		{
			"buffer":0,
			"byteLength":4104000,
			"byteOffset":47008756,
			"target":34962
		},
		{
			"buffer":0,
			"byteLength":2736000,
			"byteOffset":51112756,
			"target":34962
		},
		{
			"buffer":0,
			"byteLength":1368000,
			"byteOffset":53848756,
			"target":34962
		},
		{
			"buffer":0,
			"byteLength":2736000,
			"byteOffset":55216756,
			"target":34962
		},
		{
			"buffer":0,
			"byteLength":4752000,
			"byteOffset":57952756,
			"target":34963
		}
	],
	"samplers":[
		{
			"magFilter":9729,
			"minFilter":9987
		}
	],
	"buffers":[
		{
			"byteLength":62704756,
			"uri":"maple_tree.bin"
		}
	]
}
